<?xml version="1.0" encoding="utf-8"?>
<!-- Generator: Adobe Illustrator 22.0.0, SVG Export Plug-In . SVG Version: 6.00 Build 0)  -->
<svg version="1.1" id="圖層_1" xmlns="http://www.w3.org/2000/svg" xmlns:xlink="http://www.w3.org/1999/xlink" x="0px" y="0px"
	 viewBox="0 0 300 300" style="enable-background:new 0 0 300 300;" xml:space="preserve">
<style type="text/css">
	.st0{fill:url(#SVGID_1_);}
</style>
<linearGradient id="SVGID_1_" gradientUnits="userSpaceOnUse" x1="149.9999" y1="70" x2="149.9999" y2="282.2357">
	<stop  offset="0" style="stop-color:#E5428E"/>
	<stop  offset="1" style="stop-color:#F4B031"/>
</linearGradient>
<path class="st0" d="M150,73.1c-42.6,0-76.9,34.3-76.9,76.9s34.3,76.9,76.9,76.9c42.6,0,76.9-34.3,76.9-76.9S192.6,73.1,150,73.1z
	 M150,200c-27.5,0-50-22.4-50-50s22.4-50,50-50c27.6,0,50,22.4,50,50S177.5,200,150,200L150,200z M248,69.9c0,10-8,17.9-17.9,17.9
	c-10,0-17.9-8-17.9-17.9s8-17.9,17.9-17.9S248,60,248,69.9z M298.9,88.1c-1.1-24-6.6-45.3-24.2-62.9c-17.5-17.5-38.8-23-62.8-24.2
	c-24.8-1.4-99-1.4-123.7,0c-24,1.1-45.2,6.6-62.8,24.2C7.7,42.8,2.3,64,1.1,88.1c-1.4,24.8-1.4,99,0,123.8
	c1.1,24,6.6,45.3,24.2,62.9c17.6,17.5,38.8,23,62.8,24.2c24.8,1.4,99,1.4,123.7,0c24-1.1,45.3-6.6,62.8-24.2
	c17.5-17.5,23-38.8,24.2-62.9C300.4,187.1,300.4,112.9,298.9,88.1L298.9,88.1z M267,238.4c-5.2,13.1-15.3,23.2-28.5,28.5
	c-19.7,7.8-66.6,6-88.4,6c-21.8,0-68.7,1.7-88.4-6c-13.1-5.2-23.2-15.3-28.5-28.5c-7.8-19.7-6-66.6-6-88.4s-1.7-68.7,6-88.4
	c5.2-13.1,15.3-23.2,28.5-28.5c19.7-7.8,66.6-6,88.4-6c21.8,0,68.7-1.7,88.4,6c13.1,5.2,23.2,15.3,28.5,28.5c7.8,19.7,6,66.6,6,88.4
	S274.8,218.7,267,238.4z"/>
</svg>
