<?xml version="1.0" encoding="utf-8"?>
<!-- Generator: Adobe Illustrator 22.0.0, SVG Export Plug-In . SVG Version: 6.00 Build 0)  -->
<svg version="1.1" id="圖層_1" xmlns="http://www.w3.org/2000/svg" xmlns:xlink="http://www.w3.org/1999/xlink" x="0px" y="0px"
	 viewBox="0 0 300 300" style="enable-background:new 0 0 300 300;" xml:space="preserve">
<style type="text/css">
	.st0{fill:#74CAFA;}
	.st1{fill:#FFFFFF;}
</style>
<circle class="st0" cx="150" cy="150" r="150"/>
<path class="st1" d="M224.7,106.9c0.1,1.9,0.1,3.8,0.1,5.6c0,57.4-38.8,123.5-109.6,123.5c-21.8,0-42.1-7.1-59.2-19.5
	c3.1,0.4,6.1,0.5,9.3,0.5c18,0,34.6-6.9,47.8-18.5c-16.9-0.4-31.1-12.9-36-30.1c2.4,0.4,4.8,0.7,7.3,0.7c3.5,0,6.9-0.5,10.1-1.5
	c-17.7-4-30.9-21.5-30.9-42.6v-0.5c5.1,3.2,11.1,5.2,17.4,5.5c-10.4-7.8-17.2-21.1-17.2-36.1c0-8.1,1.9-15.5,5.2-21.9
	c19,26.3,47.5,43.5,79.4,45.4c-0.6-3.2-1-6.6-1-9.9c0-23.9,17.2-43.4,38.5-43.4c11.1,0,21.1,5.2,28.2,13.7
	c8.7-1.9,17.1-5.5,24.5-10.5c-2.9,10.1-8.9,18.5-16.9,23.9c7.8-0.9,15.3-3.4,22.2-6.7C238.8,93,232.2,100.7,224.7,106.9z"/>
</svg>
