<?xml version="1.0" encoding="utf-8"?>
<!-- Generator: Adobe Illustrator 22.0.0, SVG Export Plug-In . SVG Version: 6.00 Build 0)  -->
<svg version="1.1" id="圖層_1" xmlns="http://www.w3.org/2000/svg" xmlns:xlink="http://www.w3.org/1999/xlink" x="0px" y="0px"
	 viewBox="0 0 368 250" style="enable-background:new 0 0 368 250;" xml:space="preserve">
<style type="text/css">
	.st0{fill:#FF7C7C;}
</style>
<path class="st0" d="M360.3,39.1c-4.2-15.4-16.7-27.5-32.5-31.6C299.1,0,184,0,184,0S68.9,0,40.2,7.5C24.4,11.6,11.9,23.7,7.7,39.1
	C0,67,0,125.3,0,125.3s0,58.2,7.7,86.1c4.2,15.4,16.7,27,32.5,31.1C68.9,250,184,250,184,250s115.1,0,143.8-7.5
	c15.8-4.1,28.3-15.7,32.5-31.1c7.7-27.9,7.7-86.1,7.7-86.1S368,67,360.3,39.1L360.3,39.1z M146.4,178.1V72.4l96.2,52.9L146.4,178.1
	L146.4,178.1z"/>
</svg>
